<?xml version="1.0" encoding="UTF-8"?>
<svg id="Layer_6" data-name="Layer 6" xmlns="http://www.w3.org/2000/svg" xmlns:xlink="http://www.w3.org/1999/xlink" viewBox="0 0 64 64">
  <defs>
    <linearGradient id="linear-gradient" x1="41.81" y1="-189.17" x2="21.25" y2="-228.86" gradientTransform="translate(0 -176.11) scale(1 -1)" gradientUnits="userSpaceOnUse">
      <stop offset="0" stop-color="#303030"/>
      <stop offset="1" stop-color="#232323"/>
    </linearGradient>
    <linearGradient id="linear-gradient-2" x1="29.68" y1="-194.98" x2="29.68" y2="-215.96" gradientTransform="translate(0 -176.11) scale(1 -1)" gradientUnits="userSpaceOnUse">
      <stop offset="0" stop-color="#028987"/>
      <stop offset="1" stop-color="#025a42"/>
    </linearGradient>
    <linearGradient id="linear-gradient-3" x1="27.52" y1="-202.37" x2="44.98" y2="-211.22" gradientTransform="translate(0 -176.11) scale(1 -1)" gradientUnits="userSpaceOnUse">
      <stop offset="0" stop-color="#03756b"/>
      <stop offset="1" stop-color="#e3ed24"/>
    </linearGradient>
    <linearGradient id="linear-gradient-4" x1="22.8" y1="-201.51" x2="37.31" y2="-217.6" gradientTransform="translate(0 -176.11) scale(1 -1)" gradientUnits="userSpaceOnUse">
      <stop offset="0" stop-color="#51fbe5"/>
      <stop offset="1" stop-color="#a4d76c"/>
    </linearGradient>
    <linearGradient id="linear-gradient-5" x1="19.15" y1="-205.89" x2="47.39" y2="-217.9" gradientTransform="translate(0 -176.11) scale(1 -1)" gradientUnits="userSpaceOnUse">
      <stop offset="0" stop-color="#a3d972"/>
      <stop offset="1" stop-color="#fff500"/>
    </linearGradient>
  </defs>
  <g id="espanso-button">
    <rect id="icon-background" x="7" y="7" width="50" height="50" rx="9" ry="9" style="fill: url(#linear-gradient); stroke-width: 0px;"/>
    <g id="espanso-logo">
      <path id="logo-sweep-dark-background" d="M30.92,25.9c-9.98.67-13.75-4.47-16.66-7.03-1.64,15.85,2.84,18.09,7.69,20.33,4.85,2.24,16.44-2.29,23.51.37-.36-11.28-4.56-14.35-14.54-13.67Z" style="fill: url(#linear-gradient-2); stroke-width: 0px;"/>
      <g id="logo-caret">
        <path d="M47.75,16.76h-15.97c.71,4.65,5.25,4.65,5.25,4.65h2.36l-3.24,22.71h-7.36c0,1.59,1.92,4.61,4.2,4.61h11.79c.45-.04,1.36-.53,1.48-2.18s-1.29-2.31-2.01-2.43h-3.3l3.15-22.71c1.1.04,3.5.09,4.27,0,.96-.12,1.79-.69,1.79-2.59,0-1.52-1.6-2.01-2.4-2.06Z" style="fill: url(#linear-gradient-3); stroke-width: 0px;"/>
      </g>
      <g id="logo-sweep-lime">
        <path d="M20.38,26.8c-2.53-1.39-5.47-5.42-6.1-8.09-.29,1.83-.94,8.48.19,11.38,1.41,3.62,6.08,6.6,9.91,6.6s11.65-1.18,15.31-.24c2.93.76,5.09,1.77,5.76,3.23-.72-9.26-7.82-10-13.83-10.42-3.99-.28-8.07-.73-11.24-2.46Z" style="fill: url(#linear-gradient-4); fill-opacity: .7; stroke-width: 0px;"/>
      </g>
      <g id="logo-sweep-bottom">
        <path d="M20.56,35.08c-4.72-1.79-5.99-9.03-6.26-16.21-3.13,21.94,10.07,22.53,15.97,21.21,5.9-1.32,10.72-1.69,15.26-.39-1.43-2.18-3.16-3.46-8.15-3.72-4.98-.26-10.92,1.36-16.82-.89Z" style="fill: url(#linear-gradient-5); stroke-width: 0px;"/>
      </g>
    </g>
  </g>
</svg>