<?xml version="1.0" encoding="UTF-8"?>
<svg id="Layer_5" data-name="Layer 5" xmlns="http://www.w3.org/2000/svg" xmlns:xlink="http://www.w3.org/1999/xlink" viewBox="0 0 255 78">
  <defs>
    <linearGradient id="linear-gradient" x1="44.74" y1="5.39" x2="24.18" y2="-34.31" gradientTransform="translate(0 25.44) scale(1 -1)" gradientUnits="userSpaceOnUse">
      <stop offset="0" stop-color="#303030"/>
      <stop offset="1" stop-color="#232323"/>
    </linearGradient>
    <linearGradient id="linear-gradient-2" x1="32.61" y1="-.43" x2="32.61" y2="-21.4" gradientTransform="translate(0 25.44) scale(1 -1)" gradientUnits="userSpaceOnUse">
      <stop offset="0" stop-color="#028987"/>
      <stop offset="1" stop-color="#025a42"/>
    </linearGradient>
    <linearGradient id="linear-gradient-3" x1="30.45" y1="-7.81" x2="47.91" y2="-16.66" gradientTransform="translate(0 25.44) scale(1 -1)" gradientUnits="userSpaceOnUse">
      <stop offset="0" stop-color="#03756b"/>
      <stop offset="1" stop-color="#e3ed24"/>
    </linearGradient>
    <linearGradient id="linear-gradient-4" x1="25.73" y1="-6.95" x2="40.24" y2="-23.05" gradientTransform="translate(0 25.44) scale(1 -1)" gradientUnits="userSpaceOnUse">
      <stop offset="0" stop-color="#51fbe5"/>
      <stop offset="1" stop-color="#a4d76c"/>
    </linearGradient>
    <linearGradient id="linear-gradient-5" x1="22.08" y1="-11.34" x2="50.32" y2="-23.34" gradientTransform="translate(0 25.44) scale(1 -1)" gradientUnits="userSpaceOnUse">
      <stop offset="0" stop-color="#a3d972"/>
      <stop offset="1" stop-color="#fff500"/>
    </linearGradient>
  </defs>
  <g id="extended-logo">
    <g id="espanso">
      <path d="M119.61,63.07c-.93,0-1.72-.31-2.33-.93s-.93-1.41-.93-2.38v-29.42c0-.93.31-1.71.93-2.33.61-.64,1.39-.97,2.33-.97s1.72.33,2.34.98c.45.45.73.99.85,1.61.73-.72,1.64-1.37,2.74-1.93,1.42-.76,2.93-1.15,4.49-1.15,2.27,0,4.36.6,6.2,1.79,1.84,1.15,3.3,2.78,4.35,4.85,1.08,2.06,1.62,4.43,1.62,7.03s-.53,4.99-1.58,7.08c-1.05,2.07-2.51,3.72-4.36,4.9-1.81,1.15-3.85,1.74-6.06,1.74-1.58,0-3.1-.32-4.52-.94-1.08-.52-2.03-1.12-2.83-1.79v8.56c0,.93-.31,1.71-.93,2.33-.61.64-1.39.97-2.33.97ZM129.3,32.59c-1.98,0-3.55.71-4.8,2.17-1.25,1.43-1.88,3.27-1.88,5.47s.63,4.06,1.88,5.52c1.25,1.46,2.82,2.17,4.8,2.17s3.51-.71,4.75-2.17c1.25-1.46,1.88-3.31,1.88-5.52s-.63-4.04-1.88-5.47c-1.22-1.47-2.78-2.18-4.76-2.18ZM231.27,53.95c-2.49,0-4.78-.58-6.81-1.73-2.04-1.15-3.67-2.78-4.84-4.84-1.18-2.1-1.78-4.48-1.78-7.1s.6-4.99,1.78-7.05c1.18-2.1,2.81-3.74,4.84-4.89,2.03-1.18,4.32-1.78,6.81-1.78s4.73.6,6.76,1.78c2.06,1.15,3.71,2.79,4.89,4.89,1.18,2.06,1.78,4.43,1.78,7.05s-.6,5-1.78,7.1c-1.18,2.07-2.83,3.7-4.9,4.85-2.03,1.15-4.3,1.73-6.76,1.73ZM231.27,32.59c-1.27,0-2.45.32-3.5.95-1.02.63-1.87,1.55-2.5,2.74-.61,1.15-.92,2.5-.92,4s.31,2.84.92,4c.63,1.15,1.48,2.05,2.51,2.69,1.05.63,2.23.95,3.5.95s2.43-.32,3.45-.95c1.06-.64,1.9-1.54,2.5-2.69.64-1.16.97-2.51.97-4s-.32-2.84-.96-4c-.61-1.19-1.45-2.11-2.5-2.74-1.03-.63-2.19-.95-3.46-.95ZM207.53,53.95c-2.15,0-4.18-.36-6.04-1.08-1.88-.73-3.44-1.92-4.63-3.54-.33-.45-.5-1.01-.5-1.66,0-.96.47-1.77,1.41-2.42.52-.33,1.05-.5,1.61-.5.77,0,1.51.34,2.18,1.02.93.96,1.89,1.67,2.87,2.13,1,.45,2.22.68,3.63.68,2.26-.09,3.37-.89,3.37-2.46,0-.79-.36-1.37-1.1-1.78-.81-.46-2.1-.94-3.85-1.41-1.86-.51-3.42-1.04-4.61-1.55-1.2-.53-2.27-1.34-3.16-2.41-.89-1.13-1.34-2.63-1.34-4.47,0-1.61.46-3.03,1.37-4.21.93-1.2,2.14-2.12,3.6-2.76,1.48-.66,3.06-.99,4.71-.99s3.36.31,5.03.94c1.69.63,3.04,1.57,4,2.81.47.57.7,1.23.7,1.96,0,.85-.35,1.57-1.05,2.12-.51.4-1.11.61-1.77.61-.8,0-1.47-.26-1.99-.78-.56-.68-1.27-1.21-2.14-1.6-.85-.39-1.83-.59-2.92-.59-2.93,0-3.27,1.29-3.27,2.27,0,.61.18,1.08.56,1.46.4.37.92.69,1.55.92.68.22,1.65.5,2.9.85,1.74.48,3.21.99,4.37,1.51,1.21.54,2.24,1.37,3.07,2.47.85,1.12,1.28,2.6,1.28,4.4,0,1.65-.5,3.11-1.47,4.36-.97,1.2-2.23,2.13-3.75,2.76-1.48.62-3.03.94-4.61.94ZM154.84,53.95c-2.27,0-4.35-.58-6.2-1.74-1.84-1.18-3.32-2.83-4.4-4.9-1.05-2.06-1.58-4.43-1.58-7.04s.53-4.98,1.58-7.03c1.05-2.1,2.5-3.75,4.31-4.9,1.84-1.19,3.9-1.79,6.11-1.79,1.58,0,3.08.3,4.47.89,1.12.45,2.11,1.02,2.96,1.7.12-.64.41-1.17.86-1.62.61-.64,1.39-.97,2.33-.97s1.72.31,2.33.93c.61.61.92,1.41.92,2.38v20.3c0,.93-.31,1.72-.92,2.37-.62.62-1.41.93-2.34.93s-1.71-.31-2.33-.93c-.4-.43-.67-.93-.82-1.51-.76.72-1.71,1.37-2.83,1.92-1.39.66-2.89,1-4.44,1ZM155.56,32.59c-1.95,0-3.51.71-4.75,2.17-1.25,1.46-1.88,3.31-1.88,5.52s.62,4.06,1.83,5.52c1.24,1.42,2.82,2.12,4.8,2.12s3.56-.7,4.81-2.13c1.24-1.46,1.88-3.31,1.88-5.51s-.63-4.06-1.88-5.52c-1.25-1.46-2.82-2.17-4.8-2.17ZM104.61,53.95c-2.15,0-4.18-.36-6.04-1.08-1.88-.73-3.44-1.92-4.63-3.54-.33-.45-.5-1.01-.5-1.66,0-.96.47-1.77,1.41-2.42.52-.33,1.06-.5,1.61-.5.77,0,1.51.34,2.18,1.02.93.96,1.89,1.67,2.87,2.13,1,.45,2.22.68,3.63.68,2.26-.09,3.37-.89,3.37-2.46,0-.79-.36-1.37-1.1-1.78-.81-.46-2.1-.94-3.85-1.41-1.86-.51-3.42-1.04-4.61-1.55-1.2-.53-2.27-1.34-3.16-2.41-.89-1.13-1.34-2.63-1.34-4.47,0-1.61.46-3.03,1.37-4.21.93-1.2,2.14-2.12,3.6-2.76,1.48-.66,3.06-.99,4.71-.99s3.36.31,5.03.94c1.69.63,3.04,1.57,4,2.81.47.57.7,1.23.7,1.96,0,.85-.35,1.57-1.05,2.12-.51.4-1.11.61-1.77.61-.8,0-1.47-.26-1.99-.78-.56-.68-1.27-1.21-2.14-1.6-.85-.39-1.83-.59-2.92-.59-2.93,0-3.27,1.29-3.27,2.27,0,.61.18,1.08.56,1.46.4.37.92.69,1.55.92.68.22,1.65.5,2.9.85,1.74.48,3.21.99,4.37,1.51,1.21.54,2.24,1.37,3.07,2.47.85,1.12,1.28,2.6,1.28,4.4,0,1.65-.5,3.11-1.47,4.36-.97,1.2-2.23,2.13-3.75,2.76-1.48.62-3.03.94-4.61.94ZM81.9,53.95c-2.74,0-5.17-.58-7.24-1.73-2.04-1.15-3.64-2.75-4.75-4.75-1.12-2.03-1.68-4.34-1.68-6.85,0-2.8.6-5.3,1.77-7.43,1.18-2.13,2.76-3.78,4.7-4.9,1.93-1.15,4.03-1.73,6.24-1.73s4.24.6,6.15,1.78c1.93,1.18,3.49,2.79,4.64,4.79,1.15,2,1.73,4.19,1.73,6.52-.04.89-.39,1.61-1.05,2.16-.64.54-1.4.81-2.26.81h-15.37c.41,1.58,1.21,2.86,2.4,3.79,1.3,1,2.79,1.5,4.42,1.5,1.27,0,2.27-.11,2.96-.32.69-.24,1.25-.49,1.64-.73.45-.29.75-.48.92-.58.65-.33,1.26-.49,1.82-.49.77,0,1.44.28,1.99.83s.83,1.21.83,1.94c0,.98-.5,1.87-1.49,2.65-.92.76-2.17,1.41-3.71,1.93-1.54.52-3.11.79-4.68.79ZM86.57,37.07c-.13-1.2-.72-2.23-1.83-3.13-1.11-.9-2.39-1.36-3.79-1.36-3.38,0-5.38,1.47-6.11,4.48h11.73ZM191.71,53.47c-.93,0-1.71-.31-2.33-.93-.62-.65-.93-1.45-.93-2.38v-12.29c0-1.67-.35-2.98-1.03-3.9-.66-.92-1.83-1.38-3.49-1.38-1.74,0-3.12.51-4.1,1.52-1,1-1.48,2.23-1.48,3.77v12.29c0,.93-.31,1.72-.92,2.37-.62.62-1.41.93-2.34.93s-1.71-.31-2.33-.93c-.62-.65-.93-1.45-.93-2.38v-19.82c0-.93.31-1.71.93-2.33.61-.64,1.39-.97,2.33-.97s1.72.33,2.34.98c.56.56.87,1.27.91,2.1.78-.85,1.72-1.61,2.8-2.26,1.46-.86,3.08-1.3,4.8-1.3,3.38,0,5.77,1.04,7.08,3.1,1.28,1.97,1.93,4.74,1.93,8.22v12.29c0,.93-.31,1.72-.92,2.37-.62.62-1.41.93-2.34.93Z" style="fill: #e6eabb; stroke-width: 0px;"/>
      <path d="M231.27,26.93c2.4,0,4.59.58,6.58,1.73,2.02,1.12,3.6,2.7,4.75,4.75,1.15,2.02,1.73,4.3,1.73,6.86s-.58,4.86-1.73,6.91c-1.15,2.02-2.74,3.58-4.75,4.7-1.98,1.12-4.18,1.68-6.58,1.68s-4.64-.56-6.62-1.68c-1.98-1.12-3.55-2.69-4.7-4.7-1.15-2.05-1.73-4.35-1.73-6.91s.58-4.85,1.73-6.86c1.15-2.05,2.72-3.63,4.7-4.75,1.98-1.15,4.19-1.73,6.62-1.73M231.27,48.29c1.34,0,2.56-.34,3.65-1.01,1.12-.67,2-1.62,2.64-2.83.67-1.22,1.01-2.61,1.01-4.18s-.34-2.96-1.01-4.18c-.64-1.25-1.52-2.21-2.64-2.88-1.09-.67-2.3-1.01-3.65-1.01s-2.58.34-3.7,1.01c-1.09.67-1.97,1.63-2.64,2.88-.64,1.22-.96,2.61-.96,4.18s.32,2.96.96,4.18c.67,1.22,1.55,2.16,2.64,2.83,1.12.67,2.35,1.01,3.7,1.01M207.05,26.93c1.63,0,3.26.3,4.9.91s2.91,1.5,3.84,2.69c.42.51.62,1.09.62,1.73,0,.74-.3,1.34-.91,1.82-.45.35-.96.53-1.54.53-.7,0-1.28-.22-1.73-.67-.58-.7-1.33-1.26-2.26-1.68-.9-.42-1.92-.62-3.07-.62-2.43,0-3.65.88-3.65,2.64,0,.7.22,1.28.67,1.73.45.42,1.01.75,1.68,1.01.7.22,1.68.51,2.93.86,1.73.48,3.17.98,4.32,1.49,1.15.51,2.13,1.3,2.93,2.35s1.2,2.45,1.2,4.18c0,1.57-.46,2.94-1.39,4.13-.93,1.15-2.13,2.03-3.6,2.64-1.44.61-2.93.91-4.46.91-2.11,0-4.08-.35-5.9-1.06-1.82-.7-3.31-1.84-4.46-3.41-.29-.38-.43-.86-.43-1.44,0-.83.42-1.54,1.25-2.11.45-.29.91-.43,1.39-.43.67,0,1.31.3,1.92.91.96.99,1.95,1.73,2.98,2.21,1.06.48,2.32.72,3.79.72,2.5-.1,3.74-1.04,3.74-2.83,0-.93-.43-1.63-1.3-2.11-.83-.48-2.14-.96-3.94-1.44-1.86-.51-3.38-1.02-4.56-1.54-1.15-.51-2.16-1.28-3.02-2.3-.83-1.06-1.25-2.46-1.25-4.22,0-1.54.43-2.86,1.3-3.98.9-1.15,2.05-2.03,3.46-2.64,1.44-.64,2.96-.96,4.56-.96M185.95,26.93c3.26,0,5.52.98,6.77,2.93,1.25,1.92,1.87,4.59,1.87,8.02v12.29c0,.83-.27,1.54-.82,2.11-.54.54-1.23.82-2.06.82s-1.52-.27-2.06-.82c-.54-.58-.82-1.28-.82-2.11v-12.29c0-1.76-.37-3.14-1.1-4.13-.74-1.02-2-1.54-3.79-1.54s-3.31.54-4.37,1.63c-1.06,1.06-1.58,2.4-1.58,4.03v12.29c0,.83-.27,1.54-.82,2.11-.54.54-1.23.82-2.06.82s-1.52-.27-2.06-.82c-.54-.58-.82-1.28-.82-2.11v-19.82c0-.83.27-1.52.82-2.06.54-.58,1.23-.86,2.06-.86s1.52.29,2.06.86c.54.54.82,1.23.82,2.06v.82c.86-1.15,1.98-2.14,3.36-2.98,1.41-.83,2.94-1.25,4.61-1.25M165.26,26.93c.83,0,1.52.27,2.06.82.54.54.82,1.25.82,2.11v20.3c0,.83-.27,1.54-.82,2.11-.54.54-1.23.82-2.06.82s-1.52-.27-2.06-.82c-.51-.54-.78-1.23-.82-2.06-.8.93-1.89,1.73-3.26,2.4-1.34.64-2.77.96-4.27.96-2.21,0-4.21-.56-6-1.68-1.79-1.15-3.22-2.74-4.27-4.75-1.02-2.02-1.54-4.3-1.54-6.86s.51-4.85,1.54-6.86c1.02-2.05,2.42-3.63,4.18-4.75,1.79-1.15,3.76-1.73,5.9-1.73,1.54,0,2.98.29,4.32.86,1.34.54,2.48,1.25,3.41,2.11v-.05c0-.83.27-1.52.82-2.06.54-.58,1.23-.86,2.06-.86M155.56,48.29c2.08,0,3.78-.75,5.09-2.26,1.31-1.54,1.97-3.46,1.97-5.76s-.66-4.22-1.97-5.76c-1.31-1.54-3.01-2.3-5.09-2.3s-3.73.77-5.04,2.3c-1.31,1.54-1.97,3.46-1.97,5.76s.64,4.22,1.92,5.76c1.31,1.5,3.01,2.26,5.09,2.26M130.02,26.93c2.21,0,4.21.58,6,1.73,1.79,1.12,3.2,2.69,4.22,4.7,1.06,2.02,1.58,4.3,1.58,6.86s-.51,4.86-1.54,6.91c-1.02,2.02-2.43,3.6-4.22,4.75-1.76,1.12-3.71,1.68-5.86,1.68-1.54,0-2.99-.3-4.37-.91-1.34-.64-2.46-1.41-3.36-2.3v9.41c0,.83-.27,1.52-.82,2.06-.54.58-1.23.86-2.06.86s-1.52-.27-2.06-.82c-.54-.54-.82-1.25-.82-2.11v-29.42c0-.83.27-1.52.82-2.06.54-.58,1.23-.86,2.06-.86s1.52.29,2.06.86c.54.54.82,1.23.82,2.06v.19c.77-.96,1.84-1.79,3.22-2.5,1.38-.74,2.82-1.1,4.32-1.1M129.3,48.29c2.05,0,3.73-.77,5.04-2.3,1.31-1.54,1.97-3.46,1.97-5.76s-.66-4.21-1.97-5.71c-1.28-1.54-2.96-2.3-5.04-2.3s-3.78.77-5.09,2.3c-1.31,1.5-1.97,3.41-1.97,5.71s.66,4.22,1.97,5.76c1.31,1.54,3.01,2.3,5.09,2.3M104.13,26.93c1.63,0,3.26.3,4.9.91s2.91,1.5,3.84,2.69c.42.51.62,1.09.62,1.73,0,.74-.3,1.34-.91,1.82-.45.35-.96.53-1.54.53-.7,0-1.28-.22-1.73-.67-.58-.7-1.33-1.26-2.26-1.68-.9-.42-1.92-.62-3.07-.62-2.43,0-3.65.88-3.65,2.64,0,.7.22,1.28.67,1.73.45.42,1.01.75,1.68,1.01.7.22,1.68.51,2.93.86,1.73.48,3.17.98,4.32,1.49,1.15.51,2.13,1.3,2.93,2.35.8,1.06,1.2,2.45,1.2,4.18,0,1.57-.46,2.94-1.39,4.13-.93,1.15-2.13,2.03-3.6,2.64-1.44.61-2.93.91-4.46.91-2.11,0-4.08-.35-5.9-1.06-1.82-.7-3.31-1.84-4.46-3.41-.29-.38-.43-.86-.43-1.44,0-.83.42-1.54,1.25-2.11.45-.29.91-.43,1.39-.43.67,0,1.31.3,1.92.91.96.99,1.95,1.73,2.98,2.21,1.06.48,2.32.72,3.79.72,2.5-.1,3.74-1.04,3.74-2.83,0-.93-.43-1.63-1.3-2.11-.83-.48-2.14-.96-3.94-1.44-1.86-.51-3.38-1.02-4.56-1.54-1.15-.51-2.16-1.28-3.02-2.3-.83-1.06-1.25-2.46-1.25-4.22,0-1.54.43-2.86,1.3-3.98.9-1.15,2.05-2.03,3.46-2.64,1.44-.64,2.96-.96,4.56-.96M80.94,26.93c2.11,0,4.1.58,5.95,1.73,1.89,1.15,3.39,2.7,4.51,4.66,1.12,1.95,1.68,4.06,1.68,6.34-.03.77-.34,1.39-.91,1.87-.58.48-1.25.72-2.02.72h-15.84c.38,1.89,1.26,3.38,2.64,4.46,1.38,1.06,2.93,1.58,4.66,1.58,1.31,0,2.34-.11,3.07-.34.74-.26,1.31-.51,1.73-.77.45-.29.75-.48.91-.58.58-.29,1.12-.43,1.63-.43.67,0,1.25.24,1.73.72.48.48.72,1.04.72,1.68,0,.86-.45,1.65-1.34,2.35-.9.74-2.1,1.36-3.6,1.87-1.5.51-3.02.77-4.56.77-2.69,0-5.04-.56-7.06-1.68-1.98-1.12-3.52-2.66-4.61-4.61-1.09-1.98-1.63-4.21-1.63-6.67,0-2.75.58-5.17,1.73-7.25,1.15-2.08,2.67-3.66,4.56-4.75,1.89-1.12,3.9-1.68,6.05-1.68M74.37,37.44h12.58v-.34c-.13-1.34-.78-2.5-1.97-3.46-1.18-.96-2.53-1.44-4.03-1.44-3.71,0-5.9,1.74-6.58,5.23M231.27,26.18c-2.55,0-4.91.62-7,1.83-2.09,1.18-3.77,2.87-4.98,5.03-1.21,2.12-1.82,4.55-1.82,7.23s.61,5.13,1.82,7.28c1.22,2.13,2.89,3.81,4.99,4.99,2.09,1.18,4.44,1.78,6.99,1.78s4.86-.6,6.94-1.78c2.12-1.18,3.82-2.86,5.03-4.99,1.21-2.16,1.83-4.61,1.83-7.28s-.61-5.11-1.83-7.24c-1.21-2.16-2.91-3.85-5.04-5.04-2.08-1.21-4.42-1.82-6.94-1.82h0ZM231.27,47.54c-1.2,0-2.31-.3-3.31-.9-.96-.6-1.76-1.46-2.37-2.55-.57-1.09-.87-2.38-.87-3.81s.29-2.73.87-3.83c.6-1.12,1.4-1.99,2.37-2.59.99-.59,2.1-.9,3.3-.9s2.29.3,3.25.9c1,.6,1.79,1.47,2.37,2.58.62,1.12.93,2.4.93,3.83s-.31,2.72-.91,3.81c-.58,1.1-1.37,1.95-2.37,2.55-.97.6-2.07.9-3.26.9h0ZM207.05,26.18c-1.7,0-3.33.34-4.86,1.02-1.51.65-2.77,1.62-3.74,2.86-.97,1.25-1.45,2.75-1.45,4.44,0,1.92.47,3.5,1.41,4.69.95,1.13,2.06,1.97,3.31,2.53,1.22.53,2.78,1.05,4.67,1.57,1.73.46,2.99.92,3.76,1.37.64.36.92.8.92,1.46,0,.92-.34,1.98-3.02,2.08-1.33,0-2.5-.22-3.45-.65-.93-.44-1.86-1.13-2.75-2.05-.76-.76-1.58-1.14-2.46-1.14-.62,0-1.23.19-1.8.55-1.06.74-1.59,1.65-1.59,2.74,0,.74.2,1.38.58,1.89,1.23,1.67,2.84,2.9,4.79,3.66,1.9.73,3.98,1.11,6.17,1.11,1.63,0,3.23-.33,4.76-.97,1.58-.65,2.89-1.61,3.89-2.86,1.04-1.32,1.56-2.87,1.56-4.6,0-1.89-.45-3.44-1.35-4.63-.87-1.15-1.96-2.02-3.22-2.58-1.18-.52-2.67-1.04-4.42-1.53-1.23-.35-2.21-.64-2.9-.86-.54-.21-1.02-.49-1.4-.84-.28-.29-.43-.68-.43-1.18,0-.57,0-1.89,2.9-1.89,1.04,0,1.96.19,2.76.55.83.37,1.49.86,1.99,1.47.02.02.03.04.05.06.59.59,1.35.89,2.26.89.75,0,1.42-.23,2-.69.78-.62,1.2-1.45,1.2-2.41,0-.81-.27-1.55-.79-2.2-1-1.28-2.4-2.26-4.16-2.92-1.71-.64-3.44-.96-5.16-.96h0ZM185.95,26.18c-1.79,0-3.47.45-4.99,1.35-.88.53-1.67,1.13-2.35,1.79-.16-.6-.46-1.13-.91-1.58-.67-.71-1.55-1.08-2.59-1.08s-1.92.37-2.61,1.1c-.67.67-1.02,1.54-1.02,2.58v19.82c0,1.03.34,1.91,1.02,2.63.7.7,1.58,1.05,2.61,1.05s1.91-.35,2.59-1.04c.69-.73,1.04-1.62,1.04-2.64v-12.29c0-1.44.45-2.58,1.36-3.5.93-.95,2.18-1.41,3.84-1.41,1.55,0,2.59.4,3.18,1.22.64.86.96,2.1.96,3.69v12.29c0,1.03.34,1.91,1.02,2.63.7.7,1.58,1.05,2.61,1.05s1.91-.35,2.59-1.04c.69-.73,1.04-1.62,1.04-2.64v-12.29c0-3.56-.67-6.39-1.99-8.42-1.39-2.17-3.88-3.27-7.4-3.27h0ZM165.26,26.18c-1.04,0-1.92.37-2.61,1.1-.36.36-.62.77-.79,1.23-.77-.55-1.64-1.03-2.6-1.41-1.42-.61-2.97-.92-4.6-.92-2.28,0-4.4.62-6.31,1.85-1.87,1.19-3.36,2.89-4.44,5.05-.75,1.47-1.24,3.09-1.47,4.84-.23-1.77-.74-3.41-1.52-4.9-1.08-2.12-2.59-3.8-4.49-4.99-1.9-1.22-4.05-1.84-6.4-1.84-1.62,0-3.19.4-4.67,1.19-.9.46-1.69.99-2.36,1.57-.17-.44-.44-.84-.79-1.19-.67-.71-1.55-1.08-2.59-1.08s-1.92.37-2.61,1.1c-.67.67-1.02,1.54-1.02,2.58v29.42c0,1.07.35,1.96,1.04,2.64.69.69,1.56,1.04,2.59,1.04s1.92-.37,2.61-1.1c.67-.67,1.02-1.54,1.02-2.58v-7.78c.68.5,1.45.96,2.29,1.36,1.48.66,3.06.98,4.69.98,2.28,0,4.38-.6,6.26-1.8,1.9-1.22,3.41-2.92,4.49-5.05.75-1.49,1.24-3.12,1.47-4.87.23,1.76.72,3.39,1.47,4.87,1.12,2.13,2.64,3.83,4.54,5.04,1.91,1.2,4.07,1.8,6.41,1.8,1.61,0,3.16-.35,4.59-1.03.96-.47,1.79-1,2.5-1.59.17.4.41.77.71,1.1.7.7,1.58,1.05,2.61,1.05s1.91-.35,2.59-1.04c.69-.73,1.04-1.62,1.04-2.64v-20.3c0-1.07-.35-1.96-1.04-2.64-.69-.69-1.56-1.04-2.59-1.04h0ZM155.56,47.54c-1.87,0-3.35-.65-4.52-2-1.15-1.38-1.74-3.15-1.74-5.27s.58-3.86,1.79-5.27c1.17-1.37,2.64-2.04,4.47-2.04s3.34.67,4.52,2.04c1.2,1.41,1.79,3.13,1.79,5.27s-.58,3.86-1.79,5.27c-1.17,1.34-2.65,1.99-4.52,1.99h0ZM129.3,47.54c-1.87,0-3.34-.67-4.52-2.04-1.2-1.41-1.79-3.13-1.79-5.27s.58-3.84,1.78-5.22c1.18-1.38,2.66-2.05,4.52-2.05s3.32.67,4.46,2.03c1.21,1.39,1.79,3.1,1.79,5.23s-.58,3.86-1.79,5.27c-1.17,1.37-2.64,2.04-4.47,2.04h0ZM104.13,26.18c-1.7,0-3.33.34-4.86,1.02-1.51.65-2.77,1.62-3.74,2.86-.97,1.25-1.45,2.75-1.45,4.44,0,1.92.47,3.5,1.41,4.69.95,1.13,2.06,1.97,3.31,2.53,1.22.53,2.78,1.05,4.67,1.57,1.73.46,2.99.92,3.76,1.37.64.36.92.8.92,1.46,0,.92-.34,1.98-3.02,2.08-1.33,0-2.5-.22-3.45-.65-.93-.44-1.86-1.13-2.75-2.05-.76-.76-1.58-1.14-2.46-1.14-.62,0-1.23.19-1.8.55-1.06.74-1.59,1.65-1.59,2.74,0,.74.2,1.38.58,1.89,1.23,1.67,2.84,2.9,4.79,3.66,1.9.73,3.98,1.11,6.17,1.11,1.63,0,3.23-.33,4.76-.97,1.58-.65,2.89-1.61,3.89-2.86,1.04-1.32,1.56-2.87,1.56-4.6,0-1.89-.45-3.44-1.35-4.63-.87-1.15-1.96-2.02-3.22-2.58-1.18-.52-2.67-1.04-4.42-1.53-1.23-.35-2.21-.64-2.9-.86-.54-.21-1.02-.49-1.4-.84-.28-.29-.43-.68-.43-1.18,0-.57,0-1.89,2.9-1.89,1.04,0,1.96.19,2.76.55.83.37,1.49.86,1.99,1.47.02.02.03.04.05.06.59.59,1.35.89,2.26.89.75,0,1.42-.23,2-.69.78-.62,1.2-1.45,1.2-2.41,0-.81-.27-1.55-.79-2.2-1-1.28-2.4-2.26-4.16-2.92-1.71-.64-3.44-.96-5.16-.96h0ZM80.94,26.18c-2.27,0-4.43.6-6.43,1.78-1.99,1.15-3.62,2.84-4.83,5.03-1.21,2.18-1.82,4.74-1.82,7.61,0,2.58.58,4.95,1.72,7.03,1.15,2.07,2.8,3.72,4.9,4.9,2.12,1.18,4.62,1.78,7.42,1.78,1.61,0,3.23-.27,4.8-.81,1.58-.54,2.87-1.21,3.83-2,1.07-.84,1.62-1.83,1.62-2.93,0-.84-.32-1.59-.94-2.21-.62-.62-1.38-.94-2.26-.94-.63,0-1.29.17-1.97.51-.02,0-.03.02-.05.03-.16.1-.47.29-.93.59-.36.22-.89.45-1.57.69-.63.19-1.59.29-2.83.29-1.57,0-2.95-.47-4.2-1.43-1.01-.8-1.71-1.83-2.13-3.12h14.87c.94,0,1.78-.3,2.5-.89.74-.62,1.14-1.43,1.18-2.42,0-2.43-.6-4.68-1.78-6.74-1.18-2.05-2.78-3.71-4.77-4.92-1.96-1.22-4.1-1.84-6.34-1.84h0ZM75.32,36.69c.77-2.54,2.58-3.73,5.62-3.73,1.34,0,2.5.42,3.56,1.27.88.71,1.41,1.52,1.62,2.46h-10.8Z" style="stroke-width: 0px;"/>
    </g>
    <g id="espanso-button">
      <rect id="icon-background" x="9.93" y="14" width="50" height="50" rx="9" ry="9" style="fill: url(#linear-gradient); stroke-width: 0px;"/>
      <g id="espanso-logo">
        <path id="logo-sweep-dark-background" d="M33.84,32.9c-9.98.67-13.75-4.47-16.66-7.03-1.64,15.85,2.84,18.09,7.69,20.33,4.85,2.24,16.44-2.29,23.51.37-.36-11.28-4.56-14.35-14.54-13.67Z" style="fill: url(#linear-gradient-2); stroke-width: 0px;"/>
        <g id="logo-caret">
          <path d="M50.68,23.76h-15.97c.71,4.65,5.25,4.65,5.25,4.65h2.36l-3.24,22.71h-7.36c0,1.59,1.92,4.61,4.2,4.61h11.79c.45-.04,1.36-.53,1.48-2.18s-1.29-2.31-2.01-2.43h-3.3l3.15-22.71c1.1.04,3.5.09,4.27,0,.96-.12,1.79-.69,1.79-2.59,0-1.52-1.6-2.01-2.4-2.06Z" style="fill: url(#linear-gradient-3); stroke-width: 0px;"/>
        </g>
        <g id="logo-sweep-lime">
          <path d="M23.31,33.8c-2.53-1.39-5.47-5.42-6.1-8.09-.29,1.83-.94,8.48.19,11.38,1.41,3.62,6.08,6.6,9.91,6.6s11.65-1.18,15.31-.24c2.93.76,5.09,1.77,5.76,3.23-.72-9.26-7.82-10-13.83-10.42-3.99-.28-8.07-.73-11.24-2.46Z" style="fill: url(#linear-gradient-4); fill-opacity: .7; stroke-width: 0px;"/>
        </g>
        <g id="logo-sweep-bottom">
          <path d="M23.49,42.08c-4.72-1.79-5.99-9.03-6.26-16.21-3.13,21.94,10.07,22.53,15.97,21.21,5.9-1.32,10.72-1.69,15.26-.39-1.43-2.18-3.16-3.46-8.15-3.72-4.98-.26-10.92,1.36-16.82-.89Z" style="fill: url(#linear-gradient-5); stroke-width: 0px;"/>
        </g>
      </g>
    </g>
  </g>
</svg>