<?xml version="1.0" encoding="UTF-8"?>
<svg id="extended-logo-dark" xmlns="http://www.w3.org/2000/svg" xmlns:xlink="http://www.w3.org/1999/xlink" viewBox="0 0 255 78">
  <defs>
    <linearGradient id="linear-gradient" x1="52.81" y1="-1.61" x2="32.25" y2="-41.31" gradientTransform="translate(0 25.44) scale(1 -1)" gradientUnits="userSpaceOnUse">
      <stop offset="0" stop-color="#303030"/>
      <stop offset="1" stop-color="#232323"/>
    </linearGradient>
    <linearGradient id="linear-gradient-2" x1="40.68" y1="-7.43" x2="40.68" y2="-28.4" gradientTransform="translate(0 25.44) scale(1 -1)" gradientUnits="userSpaceOnUse">
      <stop offset="0" stop-color="#028987"/>
      <stop offset="1" stop-color="#025a42"/>
    </linearGradient>
    <linearGradient id="linear-gradient-3" x1="38.52" y1="-14.81" x2="55.98" y2="-23.66" gradientTransform="translate(0 25.44) scale(1 -1)" gradientUnits="userSpaceOnUse">
      <stop offset="0" stop-color="#03756b"/>
      <stop offset="1" stop-color="#e3ed24"/>
    </linearGradient>
    <linearGradient id="linear-gradient-4" x1="33.8" y1="-13.95" x2="48.31" y2="-30.05" gradientTransform="translate(0 25.44) scale(1 -1)" gradientUnits="userSpaceOnUse">
      <stop offset="0" stop-color="#51fbe5"/>
      <stop offset="1" stop-color="#a4d76c"/>
    </linearGradient>
    <linearGradient id="linear-gradient-5" x1="30.15" y1="-18.34" x2="58.39" y2="-30.34" gradientTransform="translate(0 25.44) scale(1 -1)" gradientUnits="userSpaceOnUse">
      <stop offset="0" stop-color="#a3d972"/>
      <stop offset="1" stop-color="#fff500"/>
    </linearGradient>
  </defs>
  <g id="espanso">
    <path d="M101.16,46.65c-.03.77-.34,1.39-.91,1.87-.58.48-1.25.72-2.02.72h-15.84c.38,1.89,1.26,3.38,2.64,4.46,1.38,1.06,2.93,1.58,4.66,1.58,1.31,0,2.34-.11,3.07-.34.74-.26,1.31-.51,1.73-.77.45-.29.75-.48.91-.58.58-.29,1.12-.43,1.63-.43.67,0,1.25.24,1.73.72.48.48.72,1.04.72,1.68,0,.86-.45,1.65-1.34,2.35-.9.74-2.1,1.36-3.6,1.87-1.5.51-3.02.77-4.56.77-2.69,0-5.04-.56-7.06-1.68-1.98-1.12-3.52-2.66-4.61-4.61-1.09-1.98-1.63-4.21-1.63-6.67,0-2.75.58-5.17,1.73-7.25,1.15-2.08,2.67-3.66,4.56-4.75,1.89-1.12,3.9-1.68,6.05-1.68s4.1.58,5.95,1.73c1.89,1.15,3.39,2.7,4.51,4.66,1.12,1.95,1.68,4.06,1.68,6.34ZM89.02,39.21c-3.71,0-5.9,1.74-6.58,5.23h12.58v-.34c-.13-1.34-.78-2.5-1.97-3.46-1.18-.96-2.53-1.44-4.03-1.44ZM102.32,56.11c-.29-.38-.43-.86-.43-1.44,0-.83.42-1.54,1.25-2.11.45-.29.91-.43,1.39-.43.67,0,1.31.3,1.92.91.96.99,1.95,1.73,2.98,2.21,1.06.48,2.32.72,3.79.72,2.5-.1,3.74-1.04,3.74-2.83,0-.93-.43-1.63-1.3-2.11-.83-.48-2.14-.96-3.94-1.44-1.86-.51-3.38-1.02-4.56-1.54-1.15-.51-2.16-1.28-3.02-2.3-.83-1.06-1.25-2.46-1.25-4.22,0-1.54.43-2.86,1.3-3.98.9-1.15,2.05-2.03,3.46-2.64,1.44-.64,2.96-.96,4.56-.96s3.26.3,4.9.91c1.63.61,2.91,1.5,3.84,2.69.42.51.62,1.09.62,1.73,0,.74-.3,1.34-.91,1.82-.45.35-.96.53-1.54.53-.7,0-1.28-.22-1.73-.67-.58-.7-1.33-1.26-2.26-1.68-.9-.42-1.92-.62-3.07-.62-2.43,0-3.65.88-3.65,2.64,0,.7.22,1.28.67,1.73.45.42,1.01.75,1.68,1.01.7.22,1.68.51,2.93.86,1.73.48,3.17.98,4.32,1.49s2.13,1.3,2.93,2.35c.8,1.06,1.2,2.45,1.2,4.18,0,1.57-.46,2.94-1.39,4.13-.93,1.15-2.13,2.03-3.6,2.64-1.44.61-2.93.91-4.46.91-2.11,0-4.08-.35-5.9-1.06s-3.31-1.84-4.46-3.41ZM138.1,33.93c2.21,0,4.21.58,6,1.73,1.79,1.12,3.2,2.69,4.22,4.7,1.06,2.02,1.58,4.3,1.58,6.86s-.51,4.86-1.54,6.91c-1.02,2.02-2.43,3.6-4.22,4.75-1.76,1.12-3.71,1.68-5.86,1.68-1.54,0-2.99-.3-4.37-.91-1.34-.64-2.46-1.41-3.36-2.3v9.41c0,.83-.27,1.52-.82,2.06-.54.58-1.23.86-2.06.86s-1.52-.27-2.06-.82-.82-1.25-.82-2.11v-29.42c0-.83.27-1.52.82-2.06.54-.58,1.23-.86,2.06-.86s1.52.29,2.06.86c.54.54.82,1.23.82,2.06v.19c.77-.96,1.84-1.79,3.22-2.5,1.38-.74,2.82-1.1,4.32-1.1ZM137.38,55.29c2.05,0,3.73-.77,5.04-2.3s1.97-3.46,1.97-5.76-.66-4.21-1.97-5.71c-1.28-1.54-2.96-2.3-5.04-2.3s-3.78.77-5.09,2.3c-1.31,1.5-1.97,3.41-1.97,5.71s.66,4.22,1.97,5.76c1.31,1.54,3.01,2.3,5.09,2.3ZM173.33,33.93c.83,0,1.52.27,2.06.82.54.54.82,1.25.82,2.11v20.3c0,.83-.27,1.54-.82,2.11-.54.54-1.23.82-2.06.82s-1.52-.27-2.06-.82c-.51-.54-.78-1.23-.82-2.06-.8.93-1.89,1.73-3.26,2.4-1.34.64-2.77.96-4.27.96-2.21,0-4.21-.56-6-1.68-1.79-1.15-3.22-2.74-4.27-4.75-1.02-2.02-1.54-4.3-1.54-6.86s.51-4.85,1.54-6.86c1.02-2.05,2.42-3.63,4.18-4.75,1.79-1.15,3.76-1.73,5.9-1.73,1.54,0,2.98.29,4.32.86,1.34.54,2.48,1.25,3.41,2.11v-.05c0-.83.27-1.52.82-2.06.54-.58,1.23-.86,2.06-.86ZM163.63,55.29c2.08,0,3.78-.75,5.09-2.26,1.31-1.54,1.97-3.46,1.97-5.76s-.66-4.22-1.97-5.76-3.01-2.3-5.09-2.3-3.73.77-5.04,2.3c-1.31,1.54-1.97,3.46-1.97,5.76s.64,4.22,1.92,5.76c1.31,1.5,3.01,2.26,5.09,2.26ZM194.02,33.93c3.26,0,5.52.98,6.77,2.93,1.25,1.92,1.87,4.59,1.87,8.02v12.29c0,.83-.27,1.54-.82,2.11-.54.54-1.23.82-2.06.82s-1.52-.27-2.06-.82c-.54-.58-.82-1.28-.82-2.11v-12.29c0-1.76-.37-3.14-1.1-4.13-.74-1.02-2-1.54-3.79-1.54s-3.31.54-4.37,1.63c-1.06,1.06-1.58,2.4-1.58,4.03v12.29c0,.83-.27,1.54-.82,2.11-.54.54-1.23.82-2.06.82s-1.52-.27-2.06-.82c-.54-.58-.82-1.28-.82-2.11v-19.82c0-.83.27-1.52.82-2.06.54-.58,1.23-.86,2.06-.86s1.52.29,2.06.86c.54.54.82,1.23.82,2.06v.82c.86-1.15,1.98-2.14,3.36-2.98,1.41-.83,2.94-1.25,4.61-1.25ZM205.24,56.11c-.29-.38-.43-.86-.43-1.44,0-.83.42-1.54,1.25-2.11.45-.29.91-.43,1.39-.43.67,0,1.31.3,1.92.91.96.99,1.95,1.73,2.98,2.21,1.06.48,2.32.72,3.79.72,2.5-.1,3.74-1.04,3.74-2.83,0-.93-.43-1.63-1.3-2.11-.83-.48-2.14-.96-3.94-1.44-1.86-.51-3.38-1.02-4.56-1.54-1.15-.51-2.16-1.28-3.02-2.3-.83-1.06-1.25-2.46-1.25-4.22,0-1.54.43-2.86,1.3-3.98.9-1.15,2.05-2.03,3.46-2.64,1.44-.64,2.96-.96,4.56-.96s3.26.3,4.9.91c1.63.61,2.91,1.5,3.84,2.69.42.51.62,1.09.62,1.73,0,.74-.3,1.34-.91,1.82-.45.35-.96.53-1.54.53-.7,0-1.28-.22-1.73-.67-.58-.7-1.33-1.26-2.26-1.68-.9-.42-1.92-.62-3.07-.62-2.43,0-3.65.88-3.65,2.64,0,.7.22,1.28.67,1.73.45.42,1.01.75,1.68,1.01.7.22,1.68.51,2.93.86,1.73.48,3.17.98,4.32,1.49,1.15.51,2.13,1.3,2.93,2.35s1.2,2.45,1.2,4.18c0,1.57-.46,2.94-1.39,4.13-.93,1.15-2.13,2.03-3.6,2.64-1.44.61-2.93.91-4.46.91-2.11,0-4.08-.35-5.9-1.06-1.82-.7-3.31-1.84-4.46-3.41ZM252.39,47.28c0,2.56-.58,4.86-1.73,6.91-1.15,2.02-2.74,3.58-4.75,4.7-1.98,1.12-4.18,1.68-6.58,1.68s-4.64-.56-6.62-1.68c-1.98-1.12-3.55-2.69-4.7-4.7-1.15-2.05-1.73-4.35-1.73-6.91s.58-4.85,1.73-6.86c1.15-2.05,2.72-3.63,4.7-4.75,1.98-1.15,4.19-1.73,6.62-1.73s4.59.58,6.58,1.73c2.02,1.12,3.6,2.7,4.75,4.75,1.15,2.02,1.73,4.3,1.73,6.86ZM246.63,47.28c0-1.57-.34-2.96-1.01-4.18-.64-1.25-1.52-2.21-2.64-2.88-1.09-.67-2.3-1.01-3.65-1.01s-2.58.34-3.7,1.01c-1.09.67-1.97,1.63-2.64,2.88-.64,1.22-.96,2.61-.96,4.18s.32,2.96.96,4.18c.67,1.22,1.55,2.16,2.64,2.83,1.12.67,2.35,1.01,3.7,1.01s2.56-.34,3.65-1.01c1.12-.67,2-1.62,2.64-2.83.67-1.22,1.01-2.61,1.01-4.18Z" style="fill: #f6f7e8; stroke-width: 0px;"/>
  </g>
  <rect id="icon-background" x="18" y="21" width="50" height="50" rx="9" ry="9" style="fill: url(#linear-gradient); stroke-width: 0px;"/>
  <path id="logo-sweep-dark-background" d="M41.92,39.9c-9.98.67-13.75-4.47-16.66-7.03-1.64,15.85,2.84,18.09,7.69,20.33,4.85,2.24,16.44-2.29,23.51.37-.36-11.28-4.56-14.35-14.54-13.67Z" style="fill: url(#linear-gradient-2); stroke-width: 0px;"/>
  <g id="logo-caret">
    <path d="M58.75,30.76h-15.97c.71,4.65,5.25,4.65,5.25,4.65h2.36l-3.24,22.71h-7.36c0,1.59,1.92,4.61,4.2,4.61h11.79c.45-.04,1.36-.53,1.48-2.18s-1.29-2.31-2.01-2.43h-3.3l3.15-22.71c1.1.04,3.5.09,4.27,0,.96-.12,1.79-.69,1.79-2.59,0-1.52-1.6-2.01-2.4-2.06Z" style="fill: url(#linear-gradient-3); stroke-width: 0px;"/>
  </g>
  <g id="logo-sweep-lime">
    <path d="M31.38,40.8c-2.53-1.39-5.47-5.42-6.1-8.09-.29,1.83-.94,8.48.19,11.38,1.41,3.62,6.08,6.6,9.91,6.6s11.65-1.18,15.31-.24c2.93.76,5.09,1.77,5.76,3.23-.72-9.26-7.82-10-13.83-10.42-3.99-.28-8.07-.73-11.24-2.46Z" style="fill: url(#linear-gradient-4); fill-opacity: .7; stroke-width: 0px;"/>
  </g>
  <g id="logo-sweep-bottom">
    <path d="M31.56,49.08c-4.72-1.79-5.99-9.03-6.26-16.21-3.13,21.94,10.07,22.53,15.97,21.21,5.9-1.32,10.72-1.69,15.26-.39-1.43-2.18-3.16-3.46-8.15-3.72-4.98-.26-10.92,1.36-16.82-.89Z" style="fill: url(#linear-gradient-5); stroke-width: 0px;"/>
  </g>
</svg>